<svg id="Capa_1" enable-background="new 0 0 509.715 509.715" height="512" viewBox="0 0 509.715 509.715" width="512" xmlns="http://www.w3.org/2000/svg"><g><g><path d="m464.851 152.034c-1.719 0-3.112 1.394-3.112 3.112 0 1.719 1.393 3.112 3.112 3.112s3.112-1.393 3.112-3.112-1.393-3.112-3.112-3.112z"/><path d="m454.442 162.443c-1.719 0-3.112 1.394-3.112 3.112 0 1.719 1.393 3.112 3.112 3.112s3.112-1.393 3.112-3.112-1.393-3.112-3.112-3.112z"/><path d="m464.851 172.097c-1.719 0-3.112 1.394-3.112 3.112 0 1.719 1.393 3.111 3.112 3.111s3.112-1.393 3.112-3.111c0-1.719-1.393-3.112-3.112-3.112z"/><path d="m454.442 182.505c-1.719 0-3.112 1.394-3.112 3.112 0 1.719 1.393 3.112 3.112 3.112s3.112-1.393 3.112-3.112c0-1.718-1.393-3.112-3.112-3.112z"/><path d="m464.851 192.159c-1.719 0-3.112 1.394-3.112 3.112 0 1.719 1.393 3.112 3.112 3.112s3.112-1.393 3.112-3.112c0-1.718-1.393-3.112-3.112-3.112z"/><path d="m454.442 202.568c-1.719 0-3.112 1.394-3.112 3.112 0 1.719 1.393 3.112 3.112 3.112s3.112-1.393 3.112-3.112c0-1.718-1.393-3.112-3.112-3.112z"/><path d="m464.851 212.222c-1.719 0-3.112 1.394-3.112 3.112 0 1.719 1.393 3.112 3.112 3.112s3.112-1.393 3.112-3.112c0-1.718-1.393-3.112-3.112-3.112z"/><path d="m454.442 222.631c-1.719 0-3.112 1.394-3.112 3.112 0 1.719 1.393 3.112 3.112 3.112s3.112-1.393 3.112-3.112-1.393-3.112-3.112-3.112z"/><path d="m464.851 232.285c-1.719 0-3.112 1.394-3.112 3.112 0 1.719 1.393 3.112 3.112 3.112s3.112-1.393 3.112-3.112-1.393-3.112-3.112-3.112z"/><path d="m454.442 242.694c-1.719 0-3.112 1.394-3.112 3.112 0 1.719 1.393 3.112 3.112 3.112s3.112-1.393 3.112-3.112-1.393-3.112-3.112-3.112z"/><path d="m464.851 252.348c-1.719 0-3.112 1.394-3.112 3.112 0 1.719 1.393 3.112 3.112 3.112s3.112-1.393 3.112-3.112-1.393-3.112-3.112-3.112z"/><path d="m454.442 262.756c-1.719 0-3.112 1.393-3.112 3.112s1.393 3.112 3.112 3.112 3.112-1.393 3.112-3.112c0-1.718-1.393-3.112-3.112-3.112z"/><path d="m464.851 272.41c-1.719 0-3.112 1.394-3.112 3.112 0 1.719 1.393 3.112 3.112 3.112s3.112-1.393 3.112-3.112c0-1.718-1.393-3.112-3.112-3.112z"/><path d="m454.442 282.819c-1.719 0-3.112 1.393-3.112 3.112s1.393 3.112 3.112 3.112 3.112-1.393 3.112-3.112c0-1.718-1.393-3.112-3.112-3.112z"/><path d="m464.851 292.473c-1.719 0-3.112 1.393-3.112 3.112s1.393 3.112 3.112 3.112 3.112-1.393 3.112-3.112c0-1.718-1.393-3.112-3.112-3.112z"/><path d="m454.442 302.882c-1.719 0-3.112 1.393-3.112 3.112s1.393 3.112 3.112 3.112 3.112-1.393 3.112-3.112-1.393-3.112-3.112-3.112z"/><path d="m464.851 312.536c-1.719 0-3.112 1.393-3.112 3.112s1.393 3.112 3.112 3.112 3.112-1.393 3.112-3.112-1.393-3.112-3.112-3.112z"/><path d="m454.442 322.945c-1.719 0-3.112 1.394-3.112 3.112 0 1.719 1.393 3.112 3.112 3.112s3.112-1.393 3.112-3.112-1.393-3.112-3.112-3.112z"/><path d="m464.851 332.599c-1.719 0-3.112 1.393-3.112 3.112s1.393 3.112 3.112 3.112 3.112-1.393 3.112-3.112-1.393-3.112-3.112-3.112z"/><path d="m454.442 369.294c1.719 0 3.112-1.393 3.112-3.112s-1.393-3.112-3.112-3.112-3.112 1.393-3.112 3.112 1.393 3.112 3.112 3.112z"/><path d="m434.379 128.541c1.719 0 3.112-1.393 3.112-3.112s-1.393-3.112-3.112-3.112-3.112 1.394-3.112 3.112c0 1.719 1.393 3.112 3.112 3.112z"/><path d="m444.788 138.195c1.719 0 3.112-1.393 3.112-3.112 0-1.718-1.393-3.112-3.112-3.112s-3.112 1.394-3.112 3.112c0 1.719 1.394 3.112 3.112 3.112z"/><path d="m444.788 152.034c-1.719 0-3.112 1.394-3.112 3.112 0 1.719 1.393 3.112 3.112 3.112s3.112-1.393 3.112-3.112-1.393-3.112-3.112-3.112z"/><path d="m434.379 162.443c-1.719 0-3.112 1.394-3.112 3.112 0 1.719 1.393 3.112 3.112 3.112s3.112-1.393 3.112-3.112-1.393-3.112-3.112-3.112z"/><path d="m444.788 172.097c-1.719 0-3.112 1.394-3.112 3.112 0 1.719 1.393 3.111 3.112 3.111s3.112-1.393 3.112-3.111c0-1.719-1.393-3.112-3.112-3.112z"/><path d="m434.379 182.505c-1.719 0-3.112 1.394-3.112 3.112 0 1.719 1.393 3.112 3.112 3.112s3.112-1.393 3.112-3.112c0-1.718-1.393-3.112-3.112-3.112z"/><path d="m444.788 192.159c-1.719 0-3.112 1.394-3.112 3.112 0 1.719 1.393 3.112 3.112 3.112s3.112-1.393 3.112-3.112c0-1.718-1.393-3.112-3.112-3.112z"/><path d="m434.379 202.568c-1.719 0-3.112 1.394-3.112 3.112 0 1.719 1.393 3.112 3.112 3.112s3.112-1.393 3.112-3.112c0-1.718-1.393-3.112-3.112-3.112z"/><path d="m444.788 212.222c-1.719 0-3.112 1.394-3.112 3.112 0 1.719 1.393 3.112 3.112 3.112s3.112-1.393 3.112-3.112c0-1.718-1.393-3.112-3.112-3.112z"/><path d="m434.379 222.631c-1.719 0-3.112 1.394-3.112 3.112 0 1.719 1.393 3.112 3.112 3.112s3.112-1.393 3.112-3.112-1.393-3.112-3.112-3.112z"/><path d="m444.788 232.285c-1.719 0-3.112 1.394-3.112 3.112 0 1.719 1.393 3.112 3.112 3.112s3.112-1.393 3.112-3.112-1.393-3.112-3.112-3.112z"/><path d="m434.379 242.694c-1.719 0-3.112 1.394-3.112 3.112 0 1.719 1.393 3.112 3.112 3.112s3.112-1.393 3.112-3.112-1.393-3.112-3.112-3.112z"/><path d="m444.788 252.348c-1.719 0-3.112 1.394-3.112 3.112 0 1.719 1.393 3.112 3.112 3.112s3.112-1.393 3.112-3.112-1.393-3.112-3.112-3.112z"/><path d="m434.379 262.756c-1.719 0-3.112 1.393-3.112 3.112s1.393 3.112 3.112 3.112 3.112-1.393 3.112-3.112c0-1.718-1.393-3.112-3.112-3.112z"/><path d="m444.788 272.41c-1.719 0-3.112 1.394-3.112 3.112 0 1.719 1.393 3.112 3.112 3.112s3.112-1.393 3.112-3.112c0-1.718-1.393-3.112-3.112-3.112z"/><path d="m444.788 292.473c-1.719 0-3.112 1.393-3.112 3.112s1.393 3.112 3.112 3.112 3.112-1.393 3.112-3.112c0-1.718-1.393-3.112-3.112-3.112z"/><path d="m434.379 329.169c1.719 0 3.112-1.393 3.112-3.112s-1.393-3.112-3.112-3.112-3.112 1.394-3.112 3.112c0 1.719 1.393 3.112 3.112 3.112z"/><path d="m434.379 349.231c1.719 0 3.112-1.393 3.112-3.111 0-1.719-1.393-3.112-3.112-3.112s-3.112 1.393-3.112 3.112 1.393 3.111 3.112 3.111z"/><path d="m444.788 358.885c1.719 0 3.112-1.393 3.112-3.112s-1.393-3.112-3.112-3.112-3.112 1.393-3.112 3.112 1.394 3.112 3.112 3.112z"/><path d="m434.379 369.294c1.719 0 3.112-1.393 3.112-3.112s-1.393-3.112-3.112-3.112-3.112 1.393-3.112 3.112 1.393 3.112 3.112 3.112z"/><path d="m414.316 108.478c1.719 0 3.112-1.393 3.112-3.112s-1.393-3.112-3.112-3.112-3.112 1.394-3.112 3.112c0 1.719 1.394 3.112 3.112 3.112z"/><path d="m424.725 118.132c1.719 0 3.112-1.393 3.112-3.112s-1.393-3.112-3.112-3.112-3.112 1.394-3.112 3.112c0 1.719 1.394 3.112 3.112 3.112z"/><path d="m414.316 128.541c1.719 0 3.112-1.393 3.112-3.112s-1.393-3.112-3.112-3.112-3.112 1.394-3.112 3.112c0 1.719 1.394 3.112 3.112 3.112z"/><path d="m424.725 138.195c1.719 0 3.112-1.393 3.112-3.112 0-1.718-1.393-3.112-3.112-3.112s-3.112 1.394-3.112 3.112c0 1.719 1.394 3.112 3.112 3.112z"/><path d="m414.316 148.604c1.719 0 3.112-1.393 3.112-3.112s-1.393-3.112-3.112-3.112-3.112 1.394-3.112 3.112c0 1.719 1.394 3.112 3.112 3.112z"/><path d="m424.725 172.097c-1.719 0-3.112 1.394-3.112 3.112 0 1.719 1.393 3.111 3.112 3.111s3.112-1.393 3.112-3.111c0-1.719-1.393-3.112-3.112-3.112z"/><path d="m414.316 182.505c-1.719 0-3.112 1.394-3.112 3.112 0 1.719 1.393 3.112 3.112 3.112s3.112-1.393 3.112-3.112c0-1.718-1.393-3.112-3.112-3.112z"/><path d="m424.725 192.159c-1.719 0-3.112 1.394-3.112 3.112 0 1.719 1.393 3.112 3.112 3.112s3.112-1.393 3.112-3.112c0-1.718-1.393-3.112-3.112-3.112z"/><path d="m414.316 202.568c-1.719 0-3.112 1.394-3.112 3.112 0 1.719 1.393 3.112 3.112 3.112s3.112-1.393 3.112-3.112c0-1.718-1.393-3.112-3.112-3.112z"/><path d="m424.725 212.222c-1.719 0-3.112 1.394-3.112 3.112 0 1.719 1.393 3.112 3.112 3.112s3.112-1.393 3.112-3.112c0-1.718-1.393-3.112-3.112-3.112z"/><path d="m414.316 222.631c-1.719 0-3.112 1.394-3.112 3.112 0 1.719 1.393 3.112 3.112 3.112s3.112-1.393 3.112-3.112-1.393-3.112-3.112-3.112z"/><path d="m424.725 232.285c-1.719 0-3.112 1.394-3.112 3.112 0 1.719 1.393 3.112 3.112 3.112s3.112-1.393 3.112-3.112-1.393-3.112-3.112-3.112z"/><path d="m424.725 252.348c-1.719 0-3.112 1.394-3.112 3.112 0 1.719 1.393 3.112 3.112 3.112s3.112-1.393 3.112-3.112-1.393-3.112-3.112-3.112z"/><path d="m414.316 289.043c1.719 0 3.112-1.393 3.112-3.112s-1.393-3.112-3.112-3.112-3.112 1.393-3.112 3.112 1.394 3.112 3.112 3.112z"/><path d="m424.725 298.697c1.719 0 3.112-1.393 3.112-3.112s-1.393-3.112-3.112-3.112-3.112 1.393-3.112 3.112 1.394 3.112 3.112 3.112z"/><path d="m414.316 309.106c1.719 0 3.112-1.393 3.112-3.112s-1.393-3.112-3.112-3.112-3.112 1.393-3.112 3.112 1.394 3.112 3.112 3.112z"/><path d="m424.725 318.76c1.719 0 3.112-1.393 3.112-3.112s-1.393-3.112-3.112-3.112-3.112 1.393-3.112 3.112 1.394 3.112 3.112 3.112z"/><path d="m424.725 338.823c1.719 0 3.112-1.393 3.112-3.112s-1.393-3.112-3.112-3.112-3.112 1.393-3.112 3.112 1.394 3.112 3.112 3.112z"/><path d="m414.316 343.008c-1.719 0-3.112 1.393-3.112 3.112s1.393 3.111 3.112 3.111 3.112-1.393 3.112-3.111c0-1.719-1.393-3.112-3.112-3.112z"/><path d="m424.725 358.885c1.719 0 3.112-1.393 3.112-3.112s-1.393-3.112-3.112-3.112-3.112 1.393-3.112 3.112 1.394 3.112 3.112 3.112z"/><path d="m414.316 363.07c-1.719 0-3.112 1.393-3.112 3.112s1.393 3.112 3.112 3.112 3.112-1.393 3.112-3.112c0-1.718-1.393-3.112-3.112-3.112z"/><path d="m424.725 378.948c1.719 0 3.112-1.393 3.112-3.112s-1.393-3.112-3.112-3.112-3.112 1.394-3.112 3.112c0 1.719 1.394 3.112 3.112 3.112z"/><path d="m424.725 399.011c1.719 0 3.112-1.393 3.112-3.111 0-1.719-1.393-3.112-3.112-3.112s-3.112 1.393-3.112 3.112c0 1.718 1.394 3.111 3.112 3.111z"/><path d="m394.254 108.478c1.719 0 3.112-1.393 3.112-3.112s-1.393-3.112-3.112-3.112-3.112 1.394-3.112 3.112c0 1.719 1.393 3.112 3.112 3.112z"/><path d="m404.663 118.132c1.719 0 3.112-1.393 3.112-3.112s-1.393-3.112-3.112-3.112-3.112 1.394-3.112 3.112c0 1.719 1.393 3.112 3.112 3.112z"/><path d="m394.254 128.541c1.719 0 3.112-1.393 3.112-3.112s-1.393-3.112-3.112-3.112-3.112 1.394-3.112 3.112c0 1.719 1.393 3.112 3.112 3.112z"/><path d="m404.663 138.195c1.719 0 3.112-1.393 3.112-3.112 0-1.718-1.393-3.112-3.112-3.112s-3.112 1.394-3.112 3.112c0 1.719 1.393 3.112 3.112 3.112z"/><path d="m394.254 148.604c1.719 0 3.112-1.393 3.112-3.112s-1.393-3.112-3.112-3.112-3.112 1.394-3.112 3.112c0 1.719 1.393 3.112 3.112 3.112z"/><path d="m404.663 158.258c1.719 0 3.112-1.393 3.112-3.112s-1.393-3.112-3.112-3.112-3.112 1.394-3.112 3.112c0 1.719 1.393 3.112 3.112 3.112z"/><path d="m394.254 168.667c1.719 0 3.112-1.393 3.112-3.112s-1.393-3.112-3.112-3.112-3.112 1.394-3.112 3.112c0 1.719 1.393 3.112 3.112 3.112z"/><path d="m394.254 182.505c-1.719 0-3.112 1.394-3.112 3.112 0 1.719 1.393 3.112 3.112 3.112s3.112-1.393 3.112-3.112c0-1.718-1.394-3.112-3.112-3.112z"/><path d="m404.663 192.159c-1.719 0-3.112 1.394-3.112 3.112 0 1.719 1.393 3.112 3.112 3.112s3.112-1.393 3.112-3.112c0-1.718-1.394-3.112-3.112-3.112z"/><path d="m404.663 212.222c-1.719 0-3.112 1.394-3.112 3.112 0 1.719 1.393 3.112 3.112 3.112s3.112-1.393 3.112-3.112c0-1.718-1.394-3.112-3.112-3.112z"/><path d="m394.254 248.918c1.719 0 3.112-1.393 3.112-3.112s-1.393-3.112-3.112-3.112-3.112 1.394-3.112 3.112c0 1.719 1.393 3.112 3.112 3.112z"/><path d="m404.663 258.572c1.719 0 3.112-1.393 3.112-3.112s-1.393-3.112-3.112-3.112-3.112 1.394-3.112 3.112c0 1.719 1.393 3.112 3.112 3.112z"/><path d="m394.254 268.98c1.719 0 3.112-1.393 3.112-3.112s-1.393-3.112-3.112-3.112-3.112 1.393-3.112 3.112c0 1.72 1.393 3.112 3.112 3.112z"/><path d="m404.663 278.634c1.719 0 3.112-1.393 3.112-3.112s-1.393-3.112-3.112-3.112-3.112 1.394-3.112 3.112c0 1.719 1.393 3.112 3.112 3.112z"/><path d="m394.254 289.043c1.719 0 3.112-1.393 3.112-3.112s-1.393-3.112-3.112-3.112-3.112 1.393-3.112 3.112 1.393 3.112 3.112 3.112z"/><path d="m404.663 298.697c1.719 0 3.112-1.393 3.112-3.112s-1.393-3.112-3.112-3.112-3.112 1.393-3.112 3.112 1.393 3.112 3.112 3.112z"/><path d="m394.254 329.169c1.719 0 3.112-1.393 3.112-3.112s-1.393-3.112-3.112-3.112-3.112 1.394-3.112 3.112c0 1.719 1.393 3.112 3.112 3.112z"/><path d="m404.663 352.661c-1.719 0-3.112 1.393-3.112 3.112s1.393 3.112 3.112 3.112 3.112-1.393 3.112-3.112c0-1.718-1.394-3.112-3.112-3.112z"/><path d="m394.254 363.07c-1.719 0-3.112 1.393-3.112 3.112s1.393 3.112 3.112 3.112 3.112-1.393 3.112-3.112c0-1.718-1.394-3.112-3.112-3.112z"/><path d="m404.663 372.724c-1.719 0-3.112 1.394-3.112 3.112 0 1.719 1.393 3.112 3.112 3.112s3.112-1.393 3.112-3.112c0-1.718-1.394-3.112-3.112-3.112z"/><path d="m404.663 399.011c1.719 0 3.112-1.393 3.112-3.111 0-1.719-1.393-3.112-3.112-3.112s-3.112 1.393-3.112 3.112c0 1.718 1.393 3.111 3.112 3.111z"/><path d="m394.254 409.42c1.719 0 3.112-1.393 3.112-3.112s-1.393-3.112-3.112-3.112-3.112 1.394-3.112 3.112c0 1.719 1.393 3.112 3.112 3.112z"/><path d="m374.191 88.416c1.719 0 3.112-1.393 3.112-3.112s-1.393-3.112-3.112-3.112-3.112 1.394-3.112 3.112c0 1.719 1.393 3.112 3.112 3.112z"/><path d="m384.6 98.069c1.719 0 3.112-1.393 3.112-3.111 0-1.719-1.393-3.112-3.112-3.112s-3.112 1.394-3.112 3.112c0 1.719 1.393 3.111 3.112 3.111z"/><path d="m374.191 108.478c1.719 0 3.112-1.393 3.112-3.112s-1.393-3.112-3.112-3.112-3.112 1.394-3.112 3.112c0 1.719 1.393 3.112 3.112 3.112z"/><path d="m384.6 118.132c1.719 0 3.112-1.393 3.112-3.112s-1.393-3.112-3.112-3.112-3.112 1.394-3.112 3.112c0 1.719 1.393 3.112 3.112 3.112z"/><path d="m374.191 128.541c1.719 0 3.112-1.393 3.112-3.112s-1.393-3.112-3.112-3.112-3.112 1.394-3.112 3.112c0 1.719 1.393 3.112 3.112 3.112z"/><path d="m384.6 138.195c1.719 0 3.112-1.393 3.112-3.112 0-1.718-1.393-3.112-3.112-3.112s-3.112 1.394-3.112 3.112c0 1.719 1.393 3.112 3.112 3.112z"/><path d="m374.191 148.604c1.719 0 3.112-1.393 3.112-3.112s-1.393-3.112-3.112-3.112-3.112 1.394-3.112 3.112c0 1.719 1.393 3.112 3.112 3.112z"/><path d="m384.6 158.258c1.719 0 3.112-1.393 3.112-3.112s-1.393-3.112-3.112-3.112-3.112 1.394-3.112 3.112c0 1.719 1.393 3.112 3.112 3.112z"/><path d="m381.488 215.334c0 1.719 1.393 3.112 3.112 3.112s3.112-1.393 3.112-3.112-1.393-3.112-3.112-3.112-3.112 1.394-3.112 3.112z"/><path d="m374.191 228.855c1.719 0 3.112-1.393 3.112-3.112s-1.393-3.112-3.112-3.112-3.112 1.394-3.112 3.112c0 1.719 1.393 3.112 3.112 3.112z"/><path d="m384.6 238.509c1.719 0 3.112-1.393 3.112-3.112s-1.393-3.112-3.112-3.112-3.112 1.394-3.112 3.112c0 1.719 1.393 3.112 3.112 3.112z"/><path d="m374.191 248.918c1.719 0 3.112-1.393 3.112-3.112s-1.393-3.112-3.112-3.112-3.112 1.394-3.112 3.112c0 1.719 1.393 3.112 3.112 3.112z"/><path d="m384.6 258.572c1.719 0 3.112-1.393 3.112-3.112s-1.393-3.112-3.112-3.112-3.112 1.394-3.112 3.112c0 1.719 1.393 3.112 3.112 3.112z"/><path d="m374.191 268.98c1.719 0 3.112-1.393 3.112-3.112s-1.393-3.112-3.112-3.112-3.112 1.393-3.112 3.112c0 1.72 1.393 3.112 3.112 3.112z"/><path d="m384.6 278.634c1.719 0 3.112-1.393 3.112-3.112s-1.393-3.112-3.112-3.112-3.112 1.394-3.112 3.112c0 1.719 1.393 3.112 3.112 3.112z"/><path d="m374.191 289.043c1.719 0 3.112-1.393 3.112-3.112s-1.393-3.112-3.112-3.112-3.112 1.393-3.112 3.112 1.393 3.112 3.112 3.112z"/><path d="m384.6 298.697c1.719 0 3.112-1.393 3.112-3.112s-1.393-3.112-3.112-3.112-3.112 1.393-3.112 3.112 1.393 3.112 3.112 3.112z"/><path d="m384.6 312.536c-1.719 0-3.112 1.393-3.112 3.112s1.393 3.112 3.112 3.112 3.112-1.393 3.112-3.112-1.393-3.112-3.112-3.112z"/><path d="m384.6 332.599c-1.719 0-3.112 1.393-3.112 3.112s1.393 3.112 3.112 3.112 3.112-1.393 3.112-3.112-1.393-3.112-3.112-3.112z"/><path d="m374.191 343.008c-1.719 0-3.112 1.393-3.112 3.112s1.393 3.111 3.112 3.111 3.112-1.393 3.112-3.111c0-1.719-1.393-3.112-3.112-3.112z"/><path d="m384.6 352.661c-1.719 0-3.112 1.393-3.112 3.112s1.393 3.112 3.112 3.112 3.112-1.393 3.112-3.112c0-1.718-1.393-3.112-3.112-3.112z"/><path d="m374.191 363.07c-1.719 0-3.112 1.393-3.112 3.112s1.393 3.112 3.112 3.112 3.112-1.393 3.112-3.112c0-1.718-1.393-3.112-3.112-3.112z"/><path d="m384.6 372.724c-1.719 0-3.112 1.394-3.112 3.112 0 1.719 1.393 3.112 3.112 3.112s3.112-1.393 3.112-3.112c0-1.718-1.393-3.112-3.112-3.112z"/><path d="m374.191 409.42c1.719 0 3.112-1.393 3.112-3.112s-1.393-3.112-3.112-3.112-3.112 1.394-3.112 3.112c0 1.719 1.393 3.112 3.112 3.112z"/><path d="m384.6 419.074c1.719 0 3.112-1.393 3.112-3.112s-1.393-3.112-3.112-3.112-3.112 1.393-3.112 3.112 1.393 3.112 3.112 3.112z"/><path d="m374.191 429.482c1.719 0 3.112-1.393 3.112-3.111 0-1.719-1.393-3.112-3.112-3.112s-3.112 1.394-3.112 3.112c0 1.719 1.393 3.111 3.112 3.111z"/><path d="m354.128 88.416c1.719 0 3.112-1.393 3.112-3.112s-1.393-3.112-3.112-3.112-3.112 1.394-3.112 3.112c0 1.719 1.393 3.112 3.112 3.112z"/><path d="m364.537 98.069c1.719 0 3.112-1.393 3.112-3.111 0-1.719-1.393-3.112-3.112-3.112s-3.112 1.394-3.112 3.112c0 1.719 1.393 3.111 3.112 3.111z"/><path d="m354.128 108.478c1.719 0 3.112-1.393 3.112-3.112s-1.393-3.112-3.112-3.112-3.112 1.394-3.112 3.112c0 1.719 1.393 3.112 3.112 3.112z"/><path d="m364.537 118.132c1.719 0 3.112-1.393 3.112-3.112s-1.393-3.112-3.112-3.112-3.112 1.394-3.112 3.112c0 1.719 1.393 3.112 3.112 3.112z"/><path d="m354.128 128.541c1.719 0 3.112-1.393 3.112-3.112s-1.393-3.112-3.112-3.112-3.112 1.394-3.112 3.112c0 1.719 1.393 3.112 3.112 3.112z"/><path d="m364.537 138.195c1.719 0 3.112-1.393 3.112-3.112 0-1.718-1.393-3.112-3.112-3.112s-3.112 1.394-3.112 3.112c0 1.719 1.393 3.112 3.112 3.112z"/><path d="m364.537 238.509c1.719 0 3.112-1.393 3.112-3.112s-1.393-3.112-3.112-3.112-3.112 1.394-3.112 3.112c0 1.719 1.393 3.112 3.112 3.112z"/><path d="m364.537 258.572c1.719 0 3.112-1.393 3.112-3.112s-1.393-3.112-3.112-3.112-3.112 1.394-3.112 3.112c0 1.719 1.393 3.112 3.112 3.112z"/><path d="m354.128 268.98c1.719 0 3.112-1.393 3.112-3.112s-1.393-3.112-3.112-3.112-3.112 1.393-3.112 3.112c0 1.72 1.393 3.112 3.112 3.112z"/><path d="m364.537 278.634c1.719 0 3.112-1.393 3.112-3.112s-1.393-3.112-3.112-3.112-3.112 1.394-3.112 3.112c0 1.719 1.393 3.112 3.112 3.112z"/><path d="m354.128 289.043c1.719 0 3.112-1.393 3.112-3.112s-1.393-3.112-3.112-3.112-3.112 1.393-3.112 3.112 1.393 3.112 3.112 3.112z"/><path d="m364.537 298.697c1.719 0 3.112-1.393 3.112-3.112s-1.393-3.112-3.112-3.112-3.112 1.393-3.112 3.112 1.393 3.112 3.112 3.112z"/><path d="m354.128 309.106c1.719 0 3.112-1.393 3.112-3.112s-1.393-3.112-3.112-3.112-3.112 1.393-3.112 3.112 1.393 3.112 3.112 3.112z"/><path d="m364.537 318.76c1.719 0 3.112-1.393 3.112-3.112s-1.393-3.112-3.112-3.112-3.112 1.393-3.112 3.112 1.393 3.112 3.112 3.112z"/><path d="m364.537 332.599c-1.719 0-3.112 1.393-3.112 3.112s1.393 3.112 3.112 3.112 3.112-1.393 3.112-3.112-1.393-3.112-3.112-3.112z"/><path d="m354.128 343.008c-1.719 0-3.112 1.393-3.112 3.112s1.393 3.111 3.112 3.111 3.112-1.393 3.112-3.111c0-1.719-1.393-3.112-3.112-3.112z"/><path d="m364.537 352.661c-1.719 0-3.112 1.393-3.112 3.112s1.393 3.112 3.112 3.112 3.112-1.393 3.112-3.112c0-1.718-1.393-3.112-3.112-3.112z"/><path d="m364.537 372.724c-1.719 0-3.112 1.394-3.112 3.112 0 1.719 1.393 3.112 3.112 3.112s3.112-1.393 3.112-3.112c0-1.718-1.393-3.112-3.112-3.112z"/><path d="m354.128 383.133c-1.719 0-3.112 1.394-3.112 3.112 0 1.719 1.393 3.112 3.112 3.112s3.112-1.393 3.112-3.112c0-1.718-1.393-3.112-3.112-3.112z"/><path d="m354.128 409.42c1.719 0 3.112-1.393 3.112-3.112s-1.393-3.112-3.112-3.112-3.112 1.394-3.112 3.112c0 1.719 1.393 3.112 3.112 3.112z"/><path d="m364.537 419.074c1.719 0 3.112-1.393 3.112-3.112s-1.393-3.112-3.112-3.112-3.112 1.393-3.112 3.112 1.393 3.112 3.112 3.112z"/><path d="m354.128 429.482c1.719 0 3.112-1.393 3.112-3.111 0-1.719-1.393-3.112-3.112-3.112s-3.112 1.394-3.112 3.112c0 1.719 1.393 3.111 3.112 3.111z"/><path d="m334.065 68.353c1.719 0 3.112-1.393 3.112-3.112s-1.393-3.112-3.112-3.112-3.112 1.394-3.112 3.112c0 1.719 1.394 3.112 3.112 3.112z"/><path d="m344.474 78.007c1.719 0 3.112-1.393 3.112-3.112s-1.393-3.112-3.112-3.112-3.112 1.394-3.112 3.112c0 1.719 1.394 3.112 3.112 3.112z"/><path d="m334.065 88.416c1.719 0 3.112-1.393 3.112-3.112s-1.393-3.112-3.112-3.112-3.112 1.394-3.112 3.112c0 1.719 1.394 3.112 3.112 3.112z"/><path d="m344.474 98.069c1.719 0 3.112-1.393 3.112-3.111 0-1.719-1.393-3.112-3.112-3.112s-3.112 1.394-3.112 3.112c0 1.719 1.394 3.111 3.112 3.111z"/><path d="m344.474 118.132c1.719 0 3.112-1.393 3.112-3.112s-1.393-3.112-3.112-3.112-3.112 1.394-3.112 3.112c0 1.719 1.394 3.112 3.112 3.112z"/><path d="m344.474 278.634c1.719 0 3.112-1.393 3.112-3.112s-1.393-3.112-3.112-3.112-3.112 1.394-3.112 3.112c0 1.719 1.394 3.112 3.112 3.112z"/><path d="m334.065 289.043c1.719 0 3.112-1.393 3.112-3.112s-1.393-3.112-3.112-3.112-3.112 1.393-3.112 3.112 1.394 3.112 3.112 3.112z"/><path d="m344.474 298.697c1.719 0 3.112-1.393 3.112-3.112s-1.393-3.112-3.112-3.112-3.112 1.393-3.112 3.112 1.394 3.112 3.112 3.112z"/><path d="m334.065 309.106c1.719 0 3.112-1.393 3.112-3.112s-1.393-3.112-3.112-3.112-3.112 1.393-3.112 3.112 1.394 3.112 3.112 3.112z"/><path d="m344.474 318.76c1.719 0 3.112-1.393 3.112-3.112s-1.393-3.112-3.112-3.112-3.112 1.393-3.112 3.112 1.394 3.112 3.112 3.112z"/><path d="m341.362 335.711c0 1.719 1.393 3.112 3.112 3.112s3.112-1.393 3.112-3.112-1.393-3.112-3.112-3.112c-1.718 0-3.112 1.393-3.112 3.112z"/><path d="m334.065 363.07c-1.719 0-3.112 1.393-3.112 3.112s1.393 3.112 3.112 3.112 3.112-1.393 3.112-3.112c0-1.718-1.393-3.112-3.112-3.112z"/><path d="m344.474 372.724c-1.719 0-3.112 1.394-3.112 3.112 0 1.719 1.393 3.112 3.112 3.112s3.112-1.393 3.112-3.112c0-1.718-1.393-3.112-3.112-3.112z"/><path d="m334.065 383.133c-1.719 0-3.112 1.394-3.112 3.112 0 1.719 1.393 3.112 3.112 3.112s3.112-1.393 3.112-3.112c0-1.718-1.393-3.112-3.112-3.112z"/><path d="m334.065 409.42c1.719 0 3.112-1.393 3.112-3.112s-1.393-3.112-3.112-3.112-3.112 1.394-3.112 3.112c0 1.719 1.394 3.112 3.112 3.112z"/><path d="m344.474 419.074c1.719 0 3.112-1.393 3.112-3.112s-1.393-3.112-3.112-3.112-3.112 1.393-3.112 3.112 1.394 3.112 3.112 3.112z"/><path d="m334.065 429.482c1.719 0 3.112-1.393 3.112-3.111 0-1.719-1.393-3.112-3.112-3.112s-3.112 1.394-3.112 3.112c0 1.719 1.394 3.111 3.112 3.111z"/><path d="m344.474 439.136c1.719 0 3.112-1.393 3.112-3.112s-1.393-3.112-3.112-3.112-3.112 1.393-3.112 3.112 1.394 3.112 3.112 3.112z"/><path d="m334.065 449.545c1.719 0 3.112-1.393 3.112-3.112s-1.393-3.112-3.112-3.112-3.112 1.394-3.112 3.112c0 1.719 1.394 3.112 3.112 3.112z"/><path d="m324.412 57.944c1.719 0 3.112-1.393 3.112-3.112s-1.393-3.112-3.112-3.112-3.112 1.394-3.112 3.112c0 1.719 1.393 3.112 3.112 3.112z"/><path d="m314.003 68.353c1.719 0 3.112-1.393 3.112-3.112s-1.393-3.112-3.112-3.112-3.112 1.394-3.112 3.112c0 1.719 1.393 3.112 3.112 3.112z"/><path d="m324.412 78.007c1.719 0 3.112-1.393 3.112-3.112s-1.393-3.112-3.112-3.112-3.112 1.394-3.112 3.112c0 1.719 1.393 3.112 3.112 3.112z"/><path d="m324.412 312.536c-1.719 0-3.112 1.393-3.112 3.112s1.393 3.112 3.112 3.112 3.112-1.393 3.112-3.112-1.394-3.112-3.112-3.112z"/><path d="m314.003 322.945c-1.719 0-3.112 1.394-3.112 3.112 0 1.719 1.393 3.112 3.112 3.112s3.112-1.393 3.112-3.112-1.394-3.112-3.112-3.112z"/><path d="m324.412 332.599c-1.719 0-3.112 1.393-3.112 3.112s1.393 3.112 3.112 3.112 3.112-1.393 3.112-3.112-1.394-3.112-3.112-3.112z"/><path d="m314.003 343.008c-1.719 0-3.112 1.393-3.112 3.112s1.393 3.111 3.112 3.111 3.112-1.393 3.112-3.111c0-1.719-1.394-3.112-3.112-3.112z"/><path d="m324.412 352.661c-1.719 0-3.112 1.393-3.112 3.112s1.393 3.112 3.112 3.112 3.112-1.393 3.112-3.112c0-1.718-1.394-3.112-3.112-3.112z"/><path d="m314.003 363.07c-1.719 0-3.112 1.393-3.112 3.112s1.393 3.112 3.112 3.112 3.112-1.393 3.112-3.112c0-1.718-1.394-3.112-3.112-3.112z"/><path d="m324.412 372.724c-1.719 0-3.112 1.394-3.112 3.112 0 1.719 1.393 3.112 3.112 3.112s3.112-1.393 3.112-3.112c0-1.718-1.394-3.112-3.112-3.112z"/><path d="m314.003 383.133c-1.719 0-3.112 1.394-3.112 3.112 0 1.719 1.393 3.112 3.112 3.112s3.112-1.393 3.112-3.112c0-1.718-1.394-3.112-3.112-3.112z"/><path d="m314.003 409.42c1.719 0 3.112-1.393 3.112-3.112s-1.393-3.112-3.112-3.112-3.112 1.394-3.112 3.112c0 1.719 1.393 3.112 3.112 3.112z"/><path d="m324.412 419.074c1.719 0 3.112-1.393 3.112-3.112s-1.393-3.112-3.112-3.112-3.112 1.393-3.112 3.112 1.393 3.112 3.112 3.112z"/><path d="m314.003 429.482c1.719 0 3.112-1.393 3.112-3.111 0-1.719-1.393-3.112-3.112-3.112s-3.112 1.394-3.112 3.112c0 1.719 1.393 3.111 3.112 3.111z"/><path d="m324.412 439.136c1.719 0 3.112-1.393 3.112-3.112s-1.393-3.112-3.112-3.112-3.112 1.393-3.112 3.112 1.393 3.112 3.112 3.112z"/><path d="m314.003 449.545c1.719 0 3.112-1.393 3.112-3.112s-1.393-3.112-3.112-3.112-3.112 1.394-3.112 3.112c0 1.719 1.393 3.112 3.112 3.112z"/><path d="m324.412 459.199c1.719 0 3.112-1.393 3.112-3.112s-1.393-3.112-3.112-3.112-3.112 1.394-3.112 3.112c0 1.719 1.393 3.112 3.112 3.112z"/><path d="m293.94 48.29c1.719 0 3.112-1.393 3.112-3.111 0-1.719-1.393-3.112-3.112-3.112s-3.112 1.394-3.112 3.112 1.393 3.111 3.112 3.111z"/><path d="m304.349 57.944c1.719 0 3.112-1.393 3.112-3.112s-1.393-3.112-3.112-3.112-3.112 1.394-3.112 3.112c0 1.719 1.393 3.112 3.112 3.112z"/><path d="m304.349 332.599c-1.719 0-3.112 1.393-3.112 3.112s1.393 3.112 3.112 3.112 3.112-1.393 3.112-3.112-1.393-3.112-3.112-3.112z"/><path d="m304.349 352.661c-1.719 0-3.112 1.393-3.112 3.112s1.393 3.112 3.112 3.112 3.112-1.393 3.112-3.112c0-1.718-1.393-3.112-3.112-3.112z"/><path d="m293.94 363.07c-1.719 0-3.112 1.393-3.112 3.112s1.393 3.112 3.112 3.112 3.112-1.393 3.112-3.112c0-1.718-1.393-3.112-3.112-3.112z"/><path d="m304.349 372.724c-1.719 0-3.112 1.394-3.112 3.112 0 1.719 1.393 3.112 3.112 3.112s3.112-1.393 3.112-3.112c0-1.718-1.393-3.112-3.112-3.112z"/><path d="m293.94 383.133c-1.719 0-3.112 1.394-3.112 3.112 0 1.719 1.393 3.112 3.112 3.112s3.112-1.393 3.112-3.112c0-1.718-1.393-3.112-3.112-3.112z"/><path d="m304.349 419.074c1.719 0 3.112-1.393 3.112-3.112s-1.393-3.112-3.112-3.112-3.112 1.393-3.112 3.112 1.393 3.112 3.112 3.112z"/><path d="m293.94 429.482c1.719 0 3.112-1.393 3.112-3.111 0-1.719-1.393-3.112-3.112-3.112s-3.112 1.394-3.112 3.112c0 1.719 1.393 3.111 3.112 3.111z"/><path d="m304.349 439.136c1.719 0 3.112-1.393 3.112-3.112s-1.393-3.112-3.112-3.112-3.112 1.393-3.112 3.112 1.393 3.112 3.112 3.112z"/><path d="m293.94 449.545c1.719 0 3.112-1.393 3.112-3.112s-1.393-3.112-3.112-3.112-3.112 1.394-3.112 3.112c0 1.719 1.393 3.112 3.112 3.112z"/><path d="m304.349 459.199c1.719 0 3.112-1.393 3.112-3.112s-1.393-3.112-3.112-3.112-3.112 1.394-3.112 3.112c0 1.719 1.393 3.112 3.112 3.112z"/><path d="m293.94 469.608c1.719 0 3.112-1.393 3.112-3.112s-1.393-3.112-3.112-3.112-3.112 1.394-3.112 3.112c0 1.719 1.393 3.112 3.112 3.112z"/><path d="m284.286 37.881c1.719 0 3.112-1.393 3.112-3.112s-1.393-3.112-3.112-3.112-3.112 1.393-3.112 3.112 1.393 3.112 3.112 3.112z"/><path d="m284.286 372.724c-1.719 0-3.112 1.394-3.112 3.112 0 1.719 1.393 3.112 3.112 3.112s3.112-1.393 3.112-3.112c0-1.718-1.393-3.112-3.112-3.112z"/><path d="m284.286 419.074c1.719 0 3.112-1.393 3.112-3.112s-1.393-3.112-3.112-3.112-3.112 1.393-3.112 3.112 1.393 3.112 3.112 3.112z"/><path d="m273.877 429.482c1.719 0 3.112-1.393 3.112-3.111 0-1.719-1.393-3.112-3.112-3.112s-3.112 1.394-3.112 3.112c0 1.719 1.393 3.111 3.112 3.111z"/><path d="m284.286 439.136c1.719 0 3.112-1.393 3.112-3.112s-1.393-3.112-3.112-3.112-3.112 1.393-3.112 3.112 1.393 3.112 3.112 3.112z"/><path d="m273.877 449.545c1.719 0 3.112-1.393 3.112-3.112s-1.393-3.112-3.112-3.112-3.112 1.394-3.112 3.112c0 1.719 1.393 3.112 3.112 3.112z"/><path d="m284.286 459.199c1.719 0 3.112-1.393 3.112-3.112s-1.393-3.112-3.112-3.112-3.112 1.394-3.112 3.112c0 1.719 1.393 3.112 3.112 3.112z"/><path d="m273.877 469.608c1.719 0 3.112-1.393 3.112-3.112s-1.393-3.112-3.112-3.112-3.112 1.394-3.112 3.112c0 1.719 1.393 3.112 3.112 3.112z"/><path d="m284.286 479.262c1.719 0 3.112-1.393 3.112-3.111 0-1.719-1.393-3.112-3.112-3.112s-3.112 1.394-3.112 3.112 1.393 3.111 3.112 3.111z"/><path d="m264.223 419.074c1.719 0 3.112-1.393 3.112-3.112s-1.393-3.112-3.112-3.112-3.112 1.393-3.112 3.112 1.394 3.112 3.112 3.112z"/><path d="m264.223 439.136c1.719 0 3.112-1.393 3.112-3.112s-1.393-3.112-3.112-3.112-3.112 1.393-3.112 3.112 1.394 3.112 3.112 3.112z"/><path d="m264.223 459.199c1.719 0 3.112-1.393 3.112-3.112s-1.393-3.112-3.112-3.112-3.112 1.394-3.112 3.112c0 1.719 1.394 3.112 3.112 3.112z"/><path d="m264.223 479.262c1.719 0 3.112-1.393 3.112-3.111 0-1.719-1.393-3.112-3.112-3.112s-3.112 1.394-3.112 3.112 1.394 3.111 3.112 3.111z"/><path d="m244.161 412.85c-1.719 0-3.112 1.393-3.112 3.112s1.393 3.112 3.112 3.112 3.112-1.393 3.112-3.112-1.394-3.112-3.112-3.112z"/><path d="m233.752 423.259c-1.719 0-3.112 1.394-3.112 3.112 0 1.719 1.393 3.111 3.112 3.111s3.112-1.393 3.112-3.111c0-1.719-1.394-3.112-3.112-3.112z"/><path d="m244.161 432.912c-1.719 0-3.112 1.393-3.112 3.112s1.393 3.112 3.112 3.112 3.112-1.393 3.112-3.112c0-1.718-1.394-3.112-3.112-3.112z"/><path d="m233.752 443.321c-1.719 0-3.112 1.394-3.112 3.112 0 1.719 1.393 3.112 3.112 3.112s3.112-1.393 3.112-3.112c0-1.718-1.394-3.112-3.112-3.112z"/><path d="m244.161 452.975c-1.719 0-3.112 1.394-3.112 3.112 0 1.719 1.393 3.112 3.112 3.112s3.112-1.393 3.112-3.112c0-1.718-1.394-3.112-3.112-3.112z"/><path d="m233.752 463.384c-1.719 0-3.112 1.394-3.112 3.112 0 1.719 1.393 3.112 3.112 3.112s3.112-1.393 3.112-3.112c0-1.718-1.394-3.112-3.112-3.112z"/><path d="m244.161 473.038c-1.719 0-3.112 1.394-3.112 3.112 0 1.719 1.393 3.111 3.112 3.111s3.112-1.393 3.112-3.111-1.394-3.112-3.112-3.112z"/><path d="m224.098 412.85c-1.719 0-3.112 1.393-3.112 3.112s1.393 3.112 3.112 3.112 3.112-1.393 3.112-3.112-1.394-3.112-3.112-3.112z"/><path d="m213.689 423.259c-1.719 0-3.112 1.394-3.112 3.112 0 1.719 1.393 3.111 3.112 3.111s3.112-1.393 3.112-3.111c0-1.719-1.394-3.112-3.112-3.112z"/><path d="m224.098 432.912c-1.719 0-3.112 1.393-3.112 3.112s1.393 3.112 3.112 3.112 3.112-1.393 3.112-3.112c0-1.718-1.394-3.112-3.112-3.112z"/><path d="m213.689 443.321c-1.719 0-3.112 1.394-3.112 3.112 0 1.719 1.393 3.112 3.112 3.112s3.112-1.393 3.112-3.112c0-1.718-1.394-3.112-3.112-3.112z"/><path d="m224.098 452.975c-1.719 0-3.112 1.394-3.112 3.112 0 1.719 1.393 3.112 3.112 3.112s3.112-1.393 3.112-3.112c0-1.718-1.394-3.112-3.112-3.112z"/><path d="m213.689 463.384c-1.719 0-3.112 1.394-3.112 3.112 0 1.719 1.393 3.112 3.112 3.112s3.112-1.393 3.112-3.112c0-1.718-1.394-3.112-3.112-3.112z"/><path d="m224.098 473.038c-1.719 0-3.112 1.394-3.112 3.112 0 1.719 1.393 3.111 3.112 3.111s3.112-1.393 3.112-3.111-1.394-3.112-3.112-3.112z"/><path d="m193.626 403.196c-1.719 0-3.112 1.394-3.112 3.112 0 1.719 1.393 3.112 3.112 3.112s3.112-1.393 3.112-3.112-1.393-3.112-3.112-3.112z"/><path d="m204.035 412.85c-1.719 0-3.112 1.393-3.112 3.112s1.393 3.112 3.112 3.112 3.112-1.393 3.112-3.112-1.393-3.112-3.112-3.112z"/><path d="m193.626 423.259c-1.719 0-3.112 1.394-3.112 3.112 0 1.719 1.393 3.111 3.112 3.111s3.112-1.393 3.112-3.111c0-1.719-1.393-3.112-3.112-3.112z"/><path d="m204.035 432.912c-1.719 0-3.112 1.393-3.112 3.112s1.393 3.112 3.112 3.112 3.112-1.393 3.112-3.112c0-1.718-1.393-3.112-3.112-3.112z"/><path d="m193.626 443.321c-1.719 0-3.112 1.394-3.112 3.112 0 1.719 1.393 3.112 3.112 3.112s3.112-1.393 3.112-3.112c0-1.718-1.393-3.112-3.112-3.112z"/><path d="m204.035 452.975c-1.719 0-3.112 1.394-3.112 3.112 0 1.719 1.393 3.112 3.112 3.112s3.112-1.393 3.112-3.112c0-1.718-1.393-3.112-3.112-3.112z"/><path d="m173.563 403.196c-1.719 0-3.112 1.394-3.112 3.112 0 1.719 1.393 3.112 3.112 3.112s3.112-1.393 3.112-3.112-1.393-3.112-3.112-3.112z"/><path d="m183.972 412.85c-1.719 0-3.112 1.393-3.112 3.112s1.393 3.112 3.112 3.112 3.112-1.393 3.112-3.112-1.393-3.112-3.112-3.112z"/><path d="m173.563 423.259c-1.719 0-3.112 1.394-3.112 3.112 0 1.719 1.393 3.111 3.112 3.111s3.112-1.393 3.112-3.111c0-1.719-1.393-3.112-3.112-3.112z"/><path d="m183.972 432.912c-1.719 0-3.112 1.393-3.112 3.112s1.393 3.112 3.112 3.112 3.112-1.393 3.112-3.112c0-1.718-1.393-3.112-3.112-3.112z"/><path d="m173.563 443.321c-1.719 0-3.112 1.394-3.112 3.112 0 1.719 1.393 3.112 3.112 3.112s3.112-1.393 3.112-3.112c0-1.718-1.393-3.112-3.112-3.112z"/><path d="m183.972 452.975c-1.719 0-3.112 1.394-3.112 3.112 0 1.719 1.393 3.112 3.112 3.112s3.112-1.393 3.112-3.112c0-1.718-1.393-3.112-3.112-3.112z"/><path d="m153.501 403.196c-1.719 0-3.112 1.394-3.112 3.112 0 1.719 1.393 3.112 3.112 3.112s3.112-1.393 3.112-3.112c-.001-1.719-1.394-3.112-3.112-3.112z"/><path d="m163.91 412.85c-1.719 0-3.112 1.393-3.112 3.112s1.393 3.112 3.112 3.112 3.112-1.393 3.112-3.112-1.394-3.112-3.112-3.112z"/><path d="m153.501 423.259c-1.719 0-3.112 1.394-3.112 3.112 0 1.719 1.393 3.111 3.112 3.111s3.112-1.393 3.112-3.111c-.001-1.719-1.394-3.112-3.112-3.112z"/><path d="m163.91 432.912c-1.719 0-3.112 1.393-3.112 3.112s1.393 3.112 3.112 3.112 3.112-1.393 3.112-3.112c0-1.718-1.394-3.112-3.112-3.112z"/><path d="m133.438 403.196c-1.719 0-3.112 1.394-3.112 3.112 0 1.719 1.393 3.112 3.112 3.112s3.112-1.393 3.112-3.112-1.394-3.112-3.112-3.112z"/><path d="m143.847 412.85c-1.719 0-3.112 1.393-3.112 3.112s1.393 3.112 3.112 3.112 3.112-1.393 3.112-3.112-1.394-3.112-3.112-3.112z"/><path d="m133.438 423.259c-1.719 0-3.112 1.394-3.112 3.112 0 1.719 1.393 3.111 3.112 3.111s3.112-1.393 3.112-3.111c0-1.719-1.394-3.112-3.112-3.112z"/><path d="m113.375 403.196c-1.719 0-3.112 1.394-3.112 3.112 0 1.719 1.393 3.112 3.112 3.112s3.112-1.393 3.112-3.112-1.393-3.112-3.112-3.112z"/><path d="m123.784 412.85c-1.719 0-3.112 1.393-3.112 3.112s1.393 3.112 3.112 3.112 3.112-1.393 3.112-3.112-1.393-3.112-3.112-3.112z"/><path d="m103.721 392.787c-1.719 0-3.112 1.393-3.112 3.112 0 1.718 1.393 3.111 3.112 3.111s3.112-1.393 3.112-3.111c0-1.719-1.393-3.112-3.112-3.112z"/><path d="m83.658 392.787c-1.719 0-3.112 1.393-3.112 3.112 0 1.718 1.393 3.111 3.112 3.111s3.112-1.393 3.112-3.111c.001-1.719-1.393-3.112-3.112-3.112z"/><path d="m474.101 125.96-217.237-125.422c-1.241-.717-2.771-.717-4.013 0l-217.238 125.422c-1.242.717-2.006 2.041-2.006 3.475v250.845c0 1.434.765 2.758 2.006 3.475l217.238 125.422c.621.358 1.314.538 2.006.538s1.386-.18 2.006-.538l217.238-125.422c1.242-.717 2.006-2.042 2.006-3.475v-250.846c.001-1.433-.764-2.757-2.006-3.474zm-172.777-90.487c.32 1.378 1.549 2.408 3.025 2.408.313 0 .609-.06.893-.146l7.793 4.5c-1.242.409-2.145 1.565-2.145 2.944 0 1.719 1.393 3.111 3.112 3.111s3.112-1.393 3.112-3.111c0-.214-.022-.423-.063-.625l34.137 19.709c-.103.31-.172.635-.172.979 0 1.719 1.393 3.112 3.112 3.112.926 0 1.749-.413 2.319-1.055l7.815 4.512c-1.588.142-2.837 1.46-2.837 3.084 0 1.719 1.393 3.112 3.112 3.112s3.112-1.393 3.112-3.112c0-.464-.108-.901-.291-1.296l34.547 19.945c-.219.426-.354.902-.354 1.414 0 1.719 1.393 3.111 3.112 3.111 1.096 0 2.056-.569 2.61-1.426l45.413 26.219c-.818.561-1.356 1.501-1.356 2.567 0 1.719 1.393 3.112 3.112 3.112 1.64 0 2.969-1.272 3.089-2.882l6.053 3.495-26.115 16.117c-.116-1.613-1.447-2.891-3.09-2.891-1.719 0-3.112 1.394-3.112 3.112 0 1.137.616 2.121 1.526 2.664l-6.762 4.173c-.398-.185-.838-.296-1.306-.296-1.686 0-3.05 1.343-3.102 3.016l-34.044 21.01c.078-.272.133-.554.133-.851 0-1.719-1.393-3.112-3.112-3.112s-3.112 1.394-3.112 3.112c0 1.517 1.087 2.777 2.524 3.052l-1.229.758-7.505-10.559c1.18-.442 2.024-1.571 2.024-2.906 0-1.719-1.393-3.112-3.112-3.112-.963 0-1.813.447-2.384 1.134l-4.725-6.648c.355-.505.567-1.118.567-1.783 0-1.719-1.393-3.112-3.112-3.112-.294 0-.572.054-.842.13l-31.507-44.33c.523.398 1.169.645 1.877.645 1.719 0 3.112-1.393 3.112-3.112s-1.393-3.112-3.112-3.112-3.112 1.394-3.112 3.112c0 .34.068.661.169.967l-5.948-8.369c1.348-.341 2.35-1.552 2.35-3.006 0-1.719-1.393-3.112-3.112-3.112-1.084 0-2.037.556-2.594 1.397l-4.897-6.89c.118-.329.194-.679.194-1.048 0-1.719-1.393-3.112-3.112-3.112-.013 0-.024.004-.037.004l-38.627-54.348c.978-.524 1.651-1.544 1.651-2.731 0-1.719-1.393-3.112-3.112-3.112-.813 0-1.548.319-2.102.831l-5.329-7.497zm93.656 187.252c-.234-.056-.475-.094-.726-.094-1.719 0-3.112 1.394-3.112 3.112 0 1.719 1.393 3.112 3.112 3.112 1.202 0 2.233-.689 2.751-1.686l16.302 35.77c-1.22.421-2.102 1.567-2.102 2.93 0 1.719 1.393 3.112 3.112 3.112.567 0 1.091-.163 1.549-.427l16.15 35.438c-.46.543-.748 1.236-.748 2.003 0 1.707 1.375 3.089 3.078 3.108l10.72 23.524c-.093-.008-.182-.028-.277-.028-1.719 0-3.112 1.393-3.112 3.112s1.393 3.112 3.112 3.112c1.036 0 1.947-.512 2.513-1.29l16.187 35.518c-1.032.507-1.749 1.558-1.749 2.786 0 .148.024.29.044.432l-14.903 1.858c.623-.569 1.021-1.38 1.021-2.29 0-1.719-1.393-3.112-3.112-3.112s-3.112 1.394-3.112 3.112c0 1.188.674 2.209 1.654 2.733l-46.599 5.811c-.568-.753-1.462-1.248-2.478-1.248-1.294 0-2.402.791-2.872 1.915l-14.136 1.763c.034-.184.057-.372.057-.565 0-1.718-1.393-3.112-3.112-3.112s-3.112 1.394-3.112 3.112c0 .465.109.902.292 1.298l-45.423 5.664c-.455-.26-.974-.42-1.536-.42-.843 0-1.605.338-2.165.882l-14.824 1.849c-.19-1.537-1.486-2.731-3.074-2.731-1.719 0-3.112 1.393-3.112 3.112 0 .132.023.257.039.385l-14.831 1.85c.586-.565.953-1.356.953-2.234 0-1.719-1.393-3.112-3.112-3.112s-3.112 1.393-3.112 3.112c0 1.16.642 2.159 1.583 2.694l-20.249 2.525 1.245-2.156c.155.024.31.047.471.047 1.719 0 3.112-1.393 3.112-3.111 0-.737-.267-1.405-.695-1.939l4.174-7.229c.235 1.486 1.511 2.625 3.063 2.625 1.719 0 3.112-1.393 3.112-3.112 0-1.718-1.393-3.112-3.112-3.112-.392 0-.763.08-1.108.212l19.866-34.409c.398.185.837.295 1.304.295 1.719 0 3.112-1.393 3.112-3.111 0-1.052-.525-1.978-1.323-2.541l26.457-45.825c.565.58 1.352.943 2.226.943 1.719 0 3.112-1.393 3.112-3.112 0-1.455-1.002-2.666-2.35-3.007l19.654-34.042c1.55-.178 2.758-1.479 2.758-3.076 0-.444-.096-.864-.263-1.246l4.043-7.002c.515 1.008 1.552 1.706 2.762 1.706 1.719 0 3.112-1.393 3.112-3.112s-1.393-3.112-3.112-3.112c-.056 0-.108.014-.163.017l19.618-33.979c.197.039.4.061.608.061 1.719 0 3.112-1.393 3.112-3.112 0-.785-.3-1.494-.78-2.041l4.993-8.648c-.009.094-.028.184-.028.28 0 1.455 1.002 2.666 2.351 3.007zm-140.123 175.595-121.576-210.577h243.153zm-.375-385.965 118.952 167.363h-237.905zm-12.487 3.717-115.815 162.947-80.438-49.641zm-200.363 120.199 80.774 49.849-80.774 180.609zm86.021 57.775 119.729 207.377-200.983-25.697zm119.574 302.618c.022-.148.046-.297.046-.451 0-1.719-1.393-3.112-3.112-3.112-.73 0-1.392.262-1.923.683l-7.451-4.302c1.207-.428 2.077-1.568 2.077-2.922 0-1.719-1.393-3.112-3.112-3.112s-3.112 1.394-3.112 3.112c0 .192.023.378.057.561l-34.114-19.696c.092-.294.156-.602.156-.927 0-1.719-1.393-3.112-3.112-3.112-.907 0-1.716.395-2.285 1.014l-45.31-26.16c.572-.564.927-1.347.927-2.214 0-1.719-1.393-3.112-3.112-3.112-1.447 0-2.653.993-3.001 2.332l-34.05-19.659c-.188-1.539-1.485-2.735-3.074-2.735-.434 0-.842.097-1.217.258l-7.393-4.268c.792-.564 1.312-1.485 1.312-2.531 0-1.719-1.393-3.112-3.112-3.112-1.62 0-2.936 1.243-3.083 2.824l-33.952-19.602c.003-.059.021-.113.021-.173 0-.423-.086-.826-.239-1.193l14.14 1.808c.285 1.424 1.542 2.497 3.05 2.497 1.228 0 2.28-.717 2.786-1.751l45.83 5.859c-.722.57-1.194 1.443-1.194 2.434 0 1.718 1.393 3.111 3.112 3.111s3.112-1.393 3.112-3.111c0-.707-.244-1.35-.641-1.873l14.481 1.852c0 .007-.002.014-.002.021 0 1.718 1.393 3.111 3.112 3.111 1.454 0 2.666-1.002 3.007-2.351l64.098 8.195c-.232.436-.375.925-.375 1.453 0 1.719 1.393 3.112 3.112 3.112s3.112-1.393 3.112-3.112c0-.247-.036-.485-.091-.716l14.137 1.808c.443 1.178 1.572 2.02 2.905 2.02 1.052 0 1.978-.525 2.541-1.324l14.721 1.882v35.121c-.194.406-.312.855-.312 1.334 0 .48.118.929.312 1.335v51.082zm11.812-87.025 12.304-1.534c.564.794 1.486 1.315 2.534 1.315 1.323 0 2.446-.829 2.896-1.993l14.122-1.761c-.044.207-.068.422-.068.642 0 1.719 1.393 3.112 3.112 3.112s3.112-1.393 3.112-3.112c0-.494-.125-.954-.33-1.369l64.867-8.089c.404 1.25 1.564 2.16 2.948 2.16 1.651 0 2.988-1.289 3.092-2.914l14.307-1.784c-.278.466-.448 1.004-.448 1.587 0 1.718 1.393 3.111 3.112 3.111s3.112-1.393 3.112-3.111c0-.857-.346-1.631-.906-2.194l45.074-5.621c.567.768 1.471 1.272 2.499 1.272 1.305 0 2.418-.804 2.881-1.943l14.13-1.762c-.037.192-.06.39-.06.593 0 .441.094.859.26 1.24l-34.341 19.827c.108-.316.18-.65.18-1.004 0-1.719-1.393-3.112-3.112-3.112s-3.112 1.394-3.112 3.112c0 1.509 1.074 2.766 2.5 3.05l-7.164 4.136c-.523-.399-1.169-.645-1.877-.645-1.719 0-3.112 1.393-3.112 3.112 0 .134.023.261.039.391l-33.948 19.6c-.039-1.685-1.411-3.04-3.105-3.04-1.719 0-3.112 1.393-3.112 3.112 0 1.127.604 2.104 1.501 2.65l-8.162 4.712c-.205-.042-.418-.066-.636-.066-1.373 0-2.525.896-2.939 2.13l-34.328 19.819c-.476-1.109-1.576-1.886-2.859-1.886-1.719 0-3.112 1.394-3.112 3.112 0 .7.239 1.338.629 1.858l-35.675 20.597c.693-.57 1.145-1.424 1.145-2.393 0-1.719-1.393-3.112-3.112-3.112s-3.112 1.394-3.112 3.112c0 1.719 1.393 3.112 3.112 3.112.377 0 .734-.077 1.069-.2l-8.31 4.798c-.57-.706-1.433-1.168-2.412-1.168-1.719 0-3.112 1.394-3.112 3.112 0 .397.081.772.216 1.12l-2.289 1.322zm209.043-45.857-2.303-5.054c1.262-.397 2.184-1.562 2.184-2.955 0-1.719-1.393-3.112-3.112-3.112-.597 0-1.149.177-1.623.468l-16.136-35.406c.497-.551.808-1.274.808-2.075 0-1.719-1.393-3.112-3.112-3.112-.02 0-.038.005-.057.006l-10.726-23.536c.124.015.246.038.375.038 1.719 0 3.112-1.393 3.112-3.112s-1.393-3.112-3.112-3.112c-1.07 0-2.013.54-2.573 1.363l-16.201-35.551c1.074-.491 1.823-1.568 1.823-2.825 0-1.719-1.393-3.112-3.112-3.112-.461 0-.894.106-1.287.286l-16.202-35.551c.339-.498.538-1.1.538-1.748 0-1.59-1.197-2.887-2.736-3.074l-7.636-16.756 14.922-9.209c.52.994 1.548 1.679 2.747 1.679 1.719 0 3.112-1.393 3.112-3.111 0-.68-.224-1.304-.594-1.816l44.211-27.285c.286 1.424 1.542 2.496 3.05 2.496 1.719 0 3.112-1.393 3.112-3.112 0-.996-.477-1.874-1.205-2.443l7.955-4.91c.178.032.36.056.547.056 1.408 0 2.584-.942 2.968-2.225l.263-.163z"/><path d="m282.238 218.508-8.675-15.329c-1.091-1.928-3.538-2.61-5.468-1.516-1.928 1.091-2.607 3.54-1.516 5.468l6.699 11.836-68.224 38.611c-1.928 1.091-2.607 3.54-1.515 5.468.738 1.305 2.096 2.037 3.496 2.037.669 0 1.348-.168 1.972-.521l71.716-40.587c1.928-1.09 2.607-3.539 1.515-5.467z"/><path d="m380.965 303.072c-1.336.641-2.581 1.394-3.746 2.228-.316-1.383-1.549-2.418-3.028-2.418-1.719 0-3.112 1.393-3.112 3.112 0 1.359.876 2.502 2.09 2.926-3.429 3.826-5.591 8.611-6.232 13.654-7.027-4.301-16.026-5.076-23.991-1.253-2.194 1.053-4.159 2.39-5.886 3.939-.354-1.33-1.555-2.315-2.996-2.315-1.719 0-3.112 1.394-3.112 3.112 0 1.548 1.133 2.822 2.614 3.061-5.28 7.232-6.524 17.068-2.385 25.69 4.102 8.544 12.579 13.851 21.674 14.208.389.175.818.278 1.272.278.468 0 .908-.111 1.306-.296 1.548-.1 3.104-.344 4.649-.745 2.145-.556 3.434-2.746 2.878-4.891-.556-2.146-2.747-3.434-4.891-2.878-4.43 1.147-8.986.428-12.751-1.73 1.305-.37 2.267-1.557 2.267-2.981 0-1.719-1.393-3.112-3.112-3.112-1.668 0-3.019 1.316-3.097 2.965-1.176-1.249-2.188-2.68-2.961-4.29-.674-1.404-1.119-2.857-1.386-4.32.086-.286.147-.583.147-.896 0-.563-.161-1.084-.422-1.539-.235-6.58 3.36-12.998 9.665-16.025 1.552-.745 3.162-1.228 4.782-1.477.424 1.214 1.568 2.09 2.926 2.09 1.312 0 2.43-.815 2.887-1.964 5.132.99 9.754 4.291 12.185 9.354.959 1.998 3.356 2.842 5.354 1.881 1.998-.959 2.84-3.355 1.881-5.354-.635-1.323-1.063-2.69-1.336-4.068 1.273-.39 2.204-1.56 2.204-2.961 0-1.447-.993-2.653-2.331-3.001.848-5.357 4.217-10.229 9.466-12.75 2.648-1.271 5.465-1.795 8.212-1.658.47.285 1.015.457 1.605.457.3 0 .585-.056.859-.135 2.966.587 5.76 1.935 8.052 3.965-.958.53-1.614 1.539-1.614 2.712 0 1.719 1.393 3.112 3.112 3.112.895 0 1.696-.383 2.263-.987.095.181.203.351.292.537 2.388 4.975 2.125 10.642-.285 15.286-.568-.61-1.372-.997-2.271-.997-1.719 0-3.112 1.393-3.112 3.112 0 1.179.663 2.192 1.629 2.72-.591.527-1.211 1.03-1.886 1.478-.659.438-1.358.835-2.08 1.181-1.403.674-2.219 2.06-2.257 3.516-.533-.949-1.537-1.598-2.703-1.598-1.719 0-3.112 1.393-3.112 3.112s1.393 3.111 3.112 3.111c1.608 0 2.916-1.224 3.079-2.789 0 .001 0 .001.001.002.69 1.438 2.125 2.276 3.62 2.276.582 0 1.174-.127 1.734-.396 1.055-.507 2.08-1.089 3.046-1.731 6.5-4.317 10.393-11.3 11.064-18.677.391-.52.631-1.159.631-1.86 0-.673-.219-1.292-.582-1.801-.175-3.196-.942-6.396-2.394-9.42-5.988-12.474-21.012-17.752-33.487-11.762z"/><path d="m180.493 338.706c-2.018-5.344-5.997-9.581-11.202-11.933-6.169-2.786-12.975-2.38-18.576.495-.197-2.637-.77-5.262-1.73-7.805-2.627-6.958-7.807-12.475-14.585-15.536-13.992-6.32-30.515-.079-36.835 13.912s-.079 30.515 13.912 36.835c3.708 1.675 7.593 2.467 11.42 2.467 6.095 0 12.035-2.021 16.872-5.681 1.541 6.113 5.736 11.499 11.916 14.29 2.811 1.27 5.798 1.908 8.794 1.908 2.55 0 5.108-.463 7.565-1.391 5.344-2.019 9.582-5.998 11.933-11.203s2.534-11.014.516-16.358zm-39.496-1.248c-4.498 9.958-16.26 14.4-26.218 9.902s-14.4-16.259-9.902-26.218c4.499-9.958 16.261-14.4 26.218-9.901 4.824 2.179 8.51 6.106 10.381 11.058 1.87 4.952 1.7 10.335-.479 15.159zm31.665 14.304c-1.469 3.253-4.116 5.738-7.455 6.998-3.338 1.261-6.967 1.148-10.22-.323-3.252-1.469-5.738-4.117-6.998-7.454-1.261-3.339-1.147-6.969.323-10.221 2.229-4.935 7.103-7.86 12.195-7.86 1.836 0 3.701.38 5.48 1.185 3.252 1.469 5.737 4.116 6.999 7.454 1.26 3.339 1.146 6.969-.324 10.221z"/><path d="m305.032 261.289c-1.233-.545-30.458-13.118-64.307.967-1.39.517-2.75 1.143-4.066 1.887-13.361 7.561-18.079 24.583-10.517 37.944 5.116 9.04 14.563 14.124 24.277 14.124 4.643 0 9.346-1.162 13.667-3.606 6.472-3.663 11.13-9.627 13.117-16.793 1.987-7.167 1.063-14.678-2.6-21.15-2.48-4.382-6.017-7.929-10.266-10.381 21.231-2.553 37.239 4.255 37.458 4.352 2.025.892 4.391-.025 5.285-2.05.896-2.028-.021-4.398-2.048-5.294zm-37.414 17.325c5.382 9.509 2.024 21.625-7.486 27.007-9.509 5.381-21.625 2.023-27.007-7.486-5.382-9.51-2.023-21.625 7.486-27.007 3.018-1.708 6.353-2.579 9.73-2.579 1.777 0 3.565.241 5.324.728 5.1 1.414 9.346 4.731 11.953 9.337z"/><path d="m235.905 102.601c-8.498 12.786-5.01 30.101 7.775 38.599 4.729 3.144 10.076 4.646 15.369 4.646 9.018 0 17.875-4.365 23.23-12.421 2.787-4.193 4.351-8.952 4.618-13.851 11.864 17.763 13.039 35.101 13.055 35.377.117 2.138 1.886 3.794 4.003 3.794.072 0 .144-.002.216-.005 2.213-.118 3.912-2.006 3.795-4.219-.072-1.348-2.072-33.113-29.959-56.939-1.084-.999-2.251-1.924-3.502-2.756-12.787-8.498-30.103-5.011-38.6 7.775zm23.217-4.398c3.767 0 7.574 1.07 10.939 3.307 4.409 2.93 7.412 7.402 8.458 12.591 1.045 5.189.007 10.475-2.923 14.882-2.93 4.409-7.402 7.412-12.591 8.458-5.189 1.045-10.475.007-14.883-2.923-9.1-6.049-11.583-18.373-5.534-27.473 3.811-5.736 10.115-8.842 16.534-8.842z"/><path d="m209.581 118.12c.703.497 1.511.735 2.311.735 1.259 0 2.5-.591 3.281-1.698l26.445-37.447c1.278-1.811.847-4.314-.963-5.593-1.811-1.277-4.314-.847-5.593.963l-26.445 37.447c-1.276 1.811-.845 4.315.964 5.593z"/></g></g></svg>