<?xml version="1.0" standalone="no"?>
<!DOCTYPE svg PUBLIC "-//W3C//DTD SVG 20010904//EN"
 "http://www.w3.org/TR/2001/REC-SVG-20010904/DTD/svg10.dtd">
<svg version="1.0" xmlns="http://www.w3.org/2000/svg"
 width="500.000000pt" height="500.000000pt" viewBox="0 0 500.000000 500.000000"
 preserveAspectRatio="xMidYMid meet">

<g transform="translate(0.000000,500.000000) scale(0.100000,-0.100000)"
fill="#000000" stroke="none">
<path d="M0 2500 l0 -2500 2500 0 2500 0 0 871 0 871 -60 60 c-33 32 -60 66
-60 74 0 9 -33 47 -72 86 -46 44 -68 73 -60 75 10 4 9 9 -4 24 -9 10 -23 19
-29 19 -7 0 -18 7 -26 16 -10 13 -10 17 0 23 9 6 1 18 -28 42 -26 20 -37 35
-30 40 7 4 -31 49 -102 119 -63 62 -109 115 -102 117 13 5 -71 121 -93 130 -8
3 -14 14 -14 24 0 10 -36 55 -80 99 -44 44 -80 86 -80 93 0 7 -9 18 -20 25
-11 7 -20 18 -20 25 -1 6 -14 28 -30 46 -20 23 -26 37 -19 42 7 4 -33 51 -102
119 -74 74 -108 114 -101 119 9 5 7 12 -7 25 -18 17 -19 17 -24 -1 -3 -10 -3
5 -2 32 2 28 1 44 -2 38 -2 -7 -12 -13 -20 -13 -13 0 -15 -23 -12 -171 4 -155
2 -172 -13 -174 -13 -2 -21 12 -36 58 -10 34 -23 61 -29 60 -6 -1 -9 5 -7 15
7 25 -75 113 -135 146 -137 74 -295 24 -308 -98 -5 -39 -1 -52 21 -85 34 -49
68 -72 229 -155 70 -36 140 -75 156 -87 17 -12 34 -18 42 -14 7 5 10 4 6 -2
-4 -6 13 -27 38 -47 28 -23 55 -60 76 -101 83 -169 5 -367 -179 -453 -51 -24
-69 -27 -172 -27 -106 0 -121 3 -198 32 -46 18 -90 33 -98 33 -8 0 -31 -16
-53 -35 -21 -19 -44 -35 -50 -35 -8 0 -11 62 -11 215 0 204 1 215 19 215 14 0
21 -10 26 -37 12 -68 71 -180 118 -225 62 -61 137 -99 206 -105 150 -14 258
87 222 207 -16 55 -90 117 -223 186 -286 149 -357 229 -358 399 0 64 5 91 24
132 32 67 94 129 165 161 49 24 68 27 156 26 93 0 106 -3 185 -37 46 -20 89
-37 96 -37 17 0 40 31 48 64 6 26 5 28 -8 17 -9 -8 -16 -21 -16 -30 0 -19 -19
-41 -35 -41 -5 0 -2 5 8 11 9 5 17 18 17 28 0 10 7 32 16 49 16 33 10 67 -7
41 -8 -11 -12 -10 -24 5 -8 11 -15 26 -15 33 0 7 -23 36 -50 63 -27 27 -50 55
-50 62 0 7 -9 19 -20 26 -11 7 -20 17 -20 22 0 14 -90 131 -106 137 -8 3 -14
14 -14 24 0 10 -36 55 -80 99 -44 44 -80 85 -80 91 0 6 -10 19 -22 30 -18 15
-20 20 -9 28 10 6 3 16 -28 42 -28 22 -37 35 -29 40 13 8 -78 99 -99 99 -7 0
-13 5 -13 10 0 6 5 10 10 10 22 0 8 19 -18 25 -19 4 -28 12 -29 27 -1 11 -11
27 -22 35 -12 8 -21 18 -21 23 0 15 -91 131 -106 137 -8 3 -14 14 -14 25 0 11
-31 50 -72 90 -46 44 -68 73 -60 75 10 4 9 9 -4 24 -9 10 -23 19 -29 19 -7 0
-18 7 -26 16 -10 13 -10 17 0 23 9 6 1 18 -28 42 -26 20 -37 35 -30 39 7 5
-20 39 -70 88 -45 45 -81 86 -81 91 0 6 -11 22 -25 36 l-26 25 -1214 0 -1215
0 0 -2500z m3730 810 c0 -5 -4 -10 -10 -10 -5 0 -10 5 -10 10 0 6 5 10 10 10
6 0 10 -4 10 -10z m-1990 -65 c0 -10 -10 -15 -27 -15 -52 0 -103 -20 -121 -48
-15 -24 -17 -69 -20 -488 l-3 -462 24 -28 c20 -22 36 -29 78 -34 43 -4 55 -9
57 -24 4 -18 -2 -19 -154 -13 -88 4 -221 7 -296 7 -116 0 -138 2 -138 15 0 11
11 15 40 15 47 0 94 21 106 47 13 28 17 923 5 956 -13 32 -63 57 -116 57 -24
0 -35 4 -35 15 0 13 40 15 300 15 260 0 300 -2 300 -15z m650 -5 c0 -17 -7
-20 -45 -20 -55 0 -90 -15 -104 -47 -7 -16 -11 -152 -11 -426 0 -369 2 -405
19 -442 23 -50 43 -68 106 -96 39 -17 61 -21 119 -17 86 6 140 31 190 90 43
50 55 90 67 218 10 110 12 567 3 622 -10 56 -42 86 -103 94 -32 4 -51 11 -51
20 0 10 41 14 195 16 174 3 195 1 195 -13 0 -12 -12 -18 -42 -22 -53 -7 -90
-35 -105 -78 -7 -23 -12 -136 -12 -339 -2 -439 -10 -481 -110 -580 -80 -79
-152 -108 -284 -117 -166 -10 -289 29 -376 122 -87 92 -87 96 -91 928 0 10
-11 29 -25 42 -18 19 -35 25 -70 25 -38 0 -45 3 -45 20 0 20 7 20 290 20 283
0 290 0 290 -20z m-287 -1353 c12 -1 17 -10 17 -30 l0 -30 -21 27 c-16 21 -28
26 -53 24 -49 -5 -41 -36 19 -71 58 -34 65 -42 65 -79 0 -38 -45 -72 -85 -63
-16 3 -39 6 -50 7 -16 0 -21 8 -23 37 l-2 36 26 -32 c19 -25 33 -33 59 -33 22
0 35 6 40 18 7 18 -8 33 -75 75 -69 44 -43 137 35 122 17 -3 38 -7 48 -8z
m478 -23 c34 -33 44 -73 29 -117 -18 -56 -54 -82 -111 -82 -41 0 -53 5 -81 32
-27 27 -32 40 -32 82 -1 39 4 55 24 76 14 15 34 31 45 36 35 15 95 3 126 -27z
m-221 -6 l0 -33 -13 25 c-7 14 -23 26 -35 28 -23 4 -23 3 -20 -102 l3 -106
-35 0 -35 0 3 106 c3 105 3 106 -20 102 -12 -2 -28 -14 -35 -28 l-13 -25 0 33
0 32 100 0 100 0 0 -32z m462 15 c24 -22 23 -68 -2 -86 -20 -14 -20 -15 15
-66 l35 -51 -32 0 c-28 0 -38 7 -66 50 -41 64 -55 64 -50 0 3 -50 3 -50 -27
-50 l-30 0 3 101 c3 76 0 104 -10 110 -8 5 20 9 66 9 60 0 84 -4 98 -17z m248
-15 c-1 -30 -2 -31 -12 -13 -15 27 -28 35 -60 35 -26 0 -28 -3 -28 -45 0 -34
4 -45 15 -45 9 0 20 10 25 23 7 17 9 10 9 -33 1 -50 0 -53 -12 -31 -23 45 -38
38 -35 -15 2 -38 7 -50 21 -52 33 -7 66 8 82 36 9 15 14 19 11 9 -3 -10 -6
-27 -6 -38 0 -17 -8 -19 -82 -19 l-83 0 3 101 c3 76 0 104 -10 110 -7 5 24 9
75 9 l87 0 0 -32z"/>
<path d="M2456 1851 c-9 -16 -16 -48 -16 -71 0 -23 7 -55 16 -71 13 -25 20
-30 47 -27 39 4 57 35 57 98 0 63 -18 94 -57 98 -27 3 -34 -2 -47 -27z"/>
<path d="M2720 1829 c0 -51 0 -51 27 -44 64 16 55 95 -11 95 -13 0 -16 -11
-16 -51z"/>
<path d="M3767 3313 c-3 -5 1 -14 9 -21 12 -10 14 -10 14 2 0 17 -16 30 -23
19z"/>
<path d="M3805 3310 c-3 -5 -1 -10 4 -10 6 0 11 5 11 10 0 6 -2 10 -4 10 -3 0
-8 -4 -11 -10z"/>
<path d="M3800 3270 c0 -11 5 -20 11 -20 5 0 7 5 4 10 -3 6 -1 10 4 10 6 0 11
5 11 10 0 6 -7 10 -15 10 -8 0 -15 -9 -15 -20z"/>
</g>
</svg>
